# xmcd
#
# Track frame offsets: 
#        150
#        9532
#        20382
#        31225
#        45050
#        56370
#        68562
#        83710
#        94812
#        103500
#        114132
#        127275
#        136227
#        147720
#        156562
#        170380
#        183135
#        195405
#        207767
#        220337
#        235400
#        246890
#
# Disc length: 3457 seconds
#
# Revision: 4
# Processed by: cddbd v1.5.2PL0 Copyright (c) Steve Scherf et al.
# Submitted via: ExactAudioCopy v0.95b4
#
DISCID=260d7f16
DTITLE=Solomon Burke - Home In Your Heart [CD1]
DYEAR=1900
DGENRE=Soul
TTITLE0=Home In Your Heart
TTITLE1=Down In The Valley
TTITLE2=Looking For My Baby
TTITLE3=I'm Hanging Up My Heart For You
TTITLE4=Cry To Me
TTITLE5=Just Out Of Reach (Of My Two Empty Arms)
TTITLE6=Goodbye Baby (Baby Goodbye)
TTITLE7=Words
TTITLE8=Stupidity
TTITLE9=Send Me Some Loving
TTITLE10=Go On Back To Him
TTITLE11=Baby (I Wanna Be Loved)
TTITLE12=Can't Nobody Love You
TTITLE13=Got To Get You Off My Mind
TTITLE14=Someone To Love Me
TTITLE15=You're Good For Me
TTITLE16=Dance, Dance, Dance
TTITLE17=Everybody Needs Somebody To Love
TTITLE18=Tonight's The Night
TTITLE19=Baby, Come On Home
TTITLE20=If You Need Me
TTITLE21=The Price
EXTD=ID3G: 14
EXTT0=
EXTT1=
EXTT2=
EXTT3=
EXTT4=
EXTT5=
EXTT6=
EXTT7=
EXTT8=
EXTT9=
EXTT10=
EXTT11=
EXTT12=
EXTT13=
EXTT14=
EXTT15=
EXTT16=
EXTT17=
EXTT18=
EXTT19=
EXTT20=
EXTT21=
PLAYORDER=
